<?xml version="1.0" encoding="iso-8859-1"?>
<!-- Generator: Adobe Illustrator 19.0.0, SVG Export Plug-In . SVG Version: 6.00 Build 0)  -->
<svg version="1.1" id="Capa_1" xmlns="http://www.w3.org/2000/svg" xmlns:xlink="http://www.w3.org/1999/xlink" x="0px" y="0px"
	 viewBox="0 0 512.001 512.001" style="enable-background:new 0 0 512.001 512.001;" xml:space="preserve">
<g>
	<g>
		<path d="M445.253,207.423c17.174-16.062,30.243-37.612,37.307-61.914c10.004-34.42,6.886-70.251-8.557-98.306
			C462.224,25.8,443.862,10.578,422.301,4.34c-45.316-13.107-95.069,15.197-118.806,66.359c-15.363-3.493-31.312-5.309-47.496-5.309
			c-15.965,0-31.703,1.764-46.875,5.166C185.572,18.697,135.62-10.024,89.856,3.208c-21.56,6.238-39.922,21.46-51.703,42.863
			c-15.442,28.056-18.56,63.886-8.556,98.305c7.142,24.567,20.415,46.327,37.867,62.44C27.747,240.315,6.007,282.929,6.007,327.875
			c0,49.8,26.429,96.4,74.42,131.219C127.45,493.212,189.803,512.001,256,512.001s128.551-18.789,175.573-52.907
			c47.991-34.818,74.42-81.42,74.42-131.219C505.993,283.201,484.515,240.83,445.253,207.423z M416.744,23.552
			c16.663,4.82,30.404,16.334,39.74,33.294c12.901,23.439,15.406,53.722,6.873,83.081c-5.439,18.711-14.945,35.455-27.35,48.531
			c-2.456-9.329-5.896-18.405-10.248-27.136c4.742-6.883,8.463-14.694,10.863-22.951c5.607-19.29,3.823-39.438-4.896-55.279
			c-6.803-12.36-17.461-21.166-30.011-24.796c-21.7-6.281-45.569,3.823-60.69,24.824c-5.839-2.595-11.835-4.909-17.956-6.951
			C343.1,35.809,381.852,13.455,416.744,23.552z M417.417,132.789c-0.897,3.086-2.038,6.079-3.385,8.943
			c-9.382-13.297-21.084-25.456-34.864-36.033c-6.349-4.873-13.045-9.336-20.034-13.37c10.122-12.501,24.367-18.484,37.023-14.822
			c9.503,2.748,15.06,9.799,18.049,15.229C420.383,103.96,421.554,118.558,417.417,132.789z M48.802,138.794
			c-8.534-29.358-6.029-59.64,6.872-83.08C65.01,38.753,78.751,27.24,95.414,22.42c35.292-10.213,74.252,12.536,94.14,53.54
			c-6.079,2.006-12.031,4.29-17.833,6.84c-15.082-21.596-39.186-32.029-61.276-25.637C97.895,60.793,87.236,69.6,80.433,81.961
			c-8.719,15.841-10.503,35.988-4.896,55.279c2.443,8.402,6.248,16.332,11.105,23.298c-4.38,8.656-7.857,17.658-10.369,26.912
			C63.81,174.356,54.259,157.566,48.802,138.794z M153.609,91.909c-7.257,4.146-14.205,8.744-20.776,13.788
			c-13.574,10.42-25.134,22.374-34.444,35.437c-1.46-3.024-2.694-6.196-3.648-9.479c-4.136-14.231-2.966-28.828,3.212-40.053
			c2.989-5.431,8.546-12.481,18.049-15.23C128.973,72.615,143.467,78.891,153.609,91.909z M255.999,492.001
			c-91.057,0-169.923-37.959-207.162-92.865c32.409-41.233,90.484-68.922,161.383-76.899c5.675,10.553,19.054,18.417,35.802,20.675
			l0.035,19.532c-3.448,4.713-8.857,7.564-14.598,7.564c-6.492,0-12.565-3.642-15.851-9.504c-2.7-4.818-8.794-6.533-13.612-3.835
			c-4.818,2.7-6.535,8.795-3.835,13.612c5.12,9.136,13.589,15.673,23.297,18.362v13.008c0,11.855,9.657,21.499,21.526,21.499h26.093
			c11.87,0,21.526-9.645,21.526-21.499v-13.008c9.709-2.691,18.177-9.228,23.297-18.362c2.7-4.817,0.984-10.912-3.833-13.612
			c-4.819-2.699-10.912-0.983-13.613,3.833c-3.286,5.863-9.36,9.505-15.852,9.505c-5.712,0-11.1-2.822-14.55-7.495l-0.035-19.607
			c16.173-2.191,29.191-9.614,35.161-19.632c71.873,9.417,126.655,34.361,163.065,74.218
			C427.477,453.28,347.962,492.001,255.999,492.001z M241.459,388.643c5.358-1.485,10.327-4.156,14.575-7.774
			c4.247,3.618,9.216,6.289,14.574,7.774v13.008c0,0.799-0.714,1.5-1.527,1.5h-26.093c-0.813,0-1.527-0.701-1.527-1.5v-13.008
			H241.459z M255.999,323.572c-17.271,0-28.728-7.694-28.728-12.783c0-5.089,11.458-12.783,28.728-12.783
			s28.727,7.694,28.727,12.783C284.728,315.877,273.27,323.572,255.999,323.572z M400.662,328.988
			c-27.996-12.232-60.644-20.826-97.14-25.583c-4.854-14.713-23.984-25.401-47.522-25.401c-22.92,0-41.669,10.136-47.118,24.252
			c-73.124,8.061-134.085,36.176-170.684,78.376c-7.901-16.566-12.192-34.312-12.192-52.761c0-41.813,22.193-81.696,62.492-112.299
			c2.144-1.628,3.541-4.052,3.875-6.723c0.036-0.288,0.082-0.574,0.12-0.862c0.005-0.033,0.009-0.066,0.014-0.101
			c1.994-14.95,6.761-29.108,13.856-42.13c0.635-0.81,1.126-1.699,1.478-2.634c13.938-24.203,35.984-44.296,63.092-57.988
			c0.544-0.176,1.082-0.391,1.605-0.667c0.365-0.193,0.708-0.411,1.039-0.641c9.86-4.772,20.362-8.705,31.364-11.696
			c0.581-0.104,1.162-0.26,1.735-0.472c15.595-4.079,32.168-6.269,49.326-6.269c17.354,0,34.11,2.244,49.86,6.413
			c0.599,0.223,1.205,0.391,1.813,0.494c10.987,3.026,21.471,6.991,31.31,11.796c0.308,0.217,0.628,0.422,0.966,0.607
			c0.554,0.303,1.126,0.541,1.706,0.73c27.132,13.834,49.139,34.1,62.949,58.478c0.333,0.884,0.795,1.726,1.381,2.5
			c7.052,13.123,11.76,27.383,13.643,42.44c0.003,0.028,0.011,0.056,0.015,0.084c0.03,0.225,0.073,0.447,0.118,0.67
			c0.02,0.098,0.036,0.197,0.059,0.295c0.053,0.227,0.121,0.452,0.19,0.676c0.028,0.092,0.052,0.184,0.083,0.273
			c0.072,0.21,0.158,0.416,0.244,0.622c0.043,0.103,0.081,0.206,0.127,0.307c0.08,0.175,0.174,0.347,0.266,0.519
			c0.067,0.126,0.13,0.255,0.203,0.378c0.083,0.142,0.177,0.277,0.268,0.415c0.096,0.146,0.19,0.294,0.293,0.436
			c0.022,0.029,0.039,0.061,0.062,0.091c0.053,0.071,0.115,0.131,0.17,0.2c0.155,0.196,0.316,0.388,0.486,0.572
			c0.102,0.11,0.206,0.216,0.311,0.32c0.151,0.15,0.307,0.294,0.468,0.434c0.124,0.108,0.249,0.216,0.377,0.317
			c0.046,0.036,0.088,0.078,0.135,0.113c40.298,30.603,62.49,70.487,62.49,112.302c0,17.913-4.056,35.159-11.524,51.309
			C454.323,358.476,429.568,341.618,400.662,328.988z"/>
	</g>
</g>
<g>
	<g>
		<path d="M223.327,113.4c-1.366-5.352-6.813-8.583-12.162-7.217c-25.901,6.61-49.166,19.016-67.278,35.872
			c-4.042,3.763-4.27,10.091-0.507,14.133c1.969,2.117,4.642,3.188,7.322,3.188c2.439,0,4.884-0.887,6.811-2.68
			c15.445-14.376,36.255-25.432,58.597-31.134C221.461,124.196,224.692,118.751,223.327,113.4z"/>
	</g>
</g>
<g>
	<g>
		<path d="M138.17,162.447c-4.595-3.063-10.803-1.822-13.867,2.773c-0.055,0.081-0.153,0.235-0.206,0.318
			c-2.926,4.685-1.503,10.854,3.181,13.781c1.648,1.03,3.48,1.521,5.29,1.521c3.305,0,6.536-1.638,8.44-4.623
			C143.989,171.631,142.733,165.488,138.17,162.447z"/>
	</g>
</g>
<g>
	<g>
		<path d="M357.993,232.506C350.219,218.624,335.681,210,320.051,210c-15.629,0-30.167,8.623-37.941,22.504
			c-2.698,4.818-0.98,10.913,3.839,13.611c4.818,2.7,10.913,0.98,13.611-3.838c4.242-7.573,12.094-12.278,20.492-12.278
			c8.399,0,16.252,4.704,20.492,12.277c1.833,3.273,5.232,5.116,8.734,5.116c1.654,0,3.331-0.411,4.876-1.277
			C358.973,243.417,360.692,237.323,357.993,232.506z"/>
	</g>
</g>
<g>
	<g>
		<path d="M229.889,232.506C222.115,218.624,207.578,210,191.948,210s-30.168,8.623-37.942,22.504
			c-2.699,4.818-0.98,10.913,3.838,13.611c4.818,2.7,10.913,0.98,13.611-3.838c4.242-7.573,12.095-12.278,20.493-12.278
			c8.399,0,16.251,4.704,20.491,12.277c1.833,3.273,5.232,5.116,8.734,5.116c1.654,0,3.331-0.411,4.877-1.277
			C230.869,243.417,232.588,237.324,229.889,232.506z"/>
	</g>
</g>
<g>
</g>
<g>
</g>
<g>
</g>
<g>
</g>
<g>
</g>
<g>
</g>
<g>
</g>
<g>
</g>
<g>
</g>
<g>
</g>
<g>
</g>
<g>
</g>
<g>
</g>
<g>
</g>
<g>
</g>
</svg>
