<?xml version="1.0" encoding="iso-8859-1"?>
<!-- Generator: Adobe Illustrator 19.0.0, SVG Export Plug-In . SVG Version: 6.00 Build 0)  -->
<svg version="1.1" id="Capa_1" xmlns="http://www.w3.org/2000/svg" xmlns:xlink="http://www.w3.org/1999/xlink" x="0px" y="0px"
	 viewBox="0 0 512.001 512.001" style="enable-background:new 0 0 512.001 512.001;" xml:space="preserve">
<g>
	<g>
		<path d="M445.253,207.425c17.174-16.06,30.242-37.612,37.307-61.914c10.005-34.418,6.887-70.249-8.556-98.305
			c-11.781-21.403-30.143-36.625-51.703-42.863c-45.305-13.11-95.068,15.195-118.806,66.359c-5.375-1.223-10.822-2.238-16.326-3.042
			c-0.4-0.082-0.806-0.149-1.22-0.181c-9.835-1.379-19.847-2.086-29.948-2.086c-15.964,0-31.703,1.764-46.874,5.166
			C185.573,18.699,135.618-10.029,89.857,3.211C68.298,9.449,49.935,24.67,38.156,46.073c-15.442,28.056-18.561,63.887-8.557,98.306
			c7.141,24.566,20.414,46.326,37.866,62.44c-39.716,33.5-61.456,76.113-61.456,121.058c0,49.798,26.43,96.4,74.42,131.219
			c47.022,34.117,109.375,52.906,175.572,52.906s128.55-18.788,175.572-52.906c47.989-34.819,74.42-81.419,74.42-131.219
			C505.992,283.203,484.514,240.832,445.253,207.425z M416.744,23.555c16.662,4.821,30.404,16.333,39.74,33.295
			c12.901,23.439,15.405,53.721,6.872,83.079c-5.439,18.711-14.945,35.456-27.35,48.53c-2.456-9.329-5.896-18.404-10.248-27.134
			c4.741-6.884,8.463-14.695,10.863-22.952c5.607-19.29,3.822-39.439-4.897-55.278c-6.803-12.36-17.461-21.166-30.011-24.796
			c-21.693-6.279-45.566,3.823-60.69,24.825c-5.839-2.594-11.835-4.909-17.954-6.951C343.1,35.813,381.85,13.461,416.744,23.555z
			 M417.417,132.792c-0.897,3.085-2.038,6.079-3.386,8.943c-9.381-13.296-21.083-25.455-34.863-36.033
			c-6.349-4.873-13.046-9.336-20.035-13.371c10.122-12.501,24.365-18.484,37.024-14.822c9.502,2.749,15.059,9.799,18.048,15.229
			C420.382,103.963,421.553,118.561,417.417,132.792z M305.879,91.811c0.593,0.22,1.193,0.386,1.796,0.489
			c10.987,3.027,21.473,6.992,31.313,11.798c0.307,0.216,0.626,0.42,0.963,0.605c0.553,0.302,1.121,0.539,1.699,0.727
			c27.135,13.834,49.143,34.101,62.955,58.482c0.333,0.885,0.796,1.727,1.382,2.501c5.456,10.152,9.508,20.984,11.933,32.341
			c-25.466,1.345-51.804-6.548-72.145-21.942c-25.146-19.032-41.46-48.292-48.609-87.086
			C300.1,90.357,303.007,91.051,305.879,91.811z M256.001,85.393c6.882,0,13.667,0.359,20.333,1.043
			c7.293,46.702,27.031,83.359,57.37,106.322c22.299,16.877,50.695,26.137,78.729,26.137c4.781,0,9.554-0.274,14.282-0.822
			c13.311,10.527,24.525,22.095,33.503,34.418c-150.198,19.199-212.056-72.959-236.826-138.768
			c-0.023-0.107-0.038-0.215-0.065-0.323c-0.206-0.808-0.515-1.56-0.893-2.262c-2.796-7.645-5.089-14.901-6.964-21.545
			C228.452,86.852,242.032,85.393,256.001,85.393z M48.804,138.797c-8.534-29.359-6.029-59.641,6.873-83.08
			c9.335-16.96,23.076-28.474,39.739-33.294c35.295-10.21,74.253,12.538,94.14,53.539c-6.078,2.006-12.03,4.29-17.833,6.84
			c-15.081-21.596-39.186-32.025-61.276-25.637c-12.55,3.631-23.208,12.438-30.011,24.797c-8.719,15.84-10.504,35.989-4.896,55.279
			c2.441,8.402,6.246,16.331,11.104,23.299c-4.38,8.656-7.856,17.657-10.368,26.912C63.81,174.358,54.26,157.569,48.804,138.797z
			 M153.611,91.914c-7.257,4.145-14.205,8.744-20.776,13.788c-13.575,10.418-25.134,22.371-34.443,35.435
			c-1.46-3.025-2.694-6.197-3.649-9.478c-4.137-14.231-2.966-28.83,3.212-40.054c2.989-5.43,8.547-12.48,18.049-15.229
			C128.979,72.623,143.47,78.897,153.611,91.914z M256.001,492.001c-91.057,0-169.922-37.959-207.161-92.865
			c32.409-41.233,90.482-68.922,161.382-76.898c5.675,10.552,19.054,18.416,35.802,20.674l0.025,13.849
			c-9.702,2.693-18.164,9.228-23.281,18.357c-2.701,4.818-0.984,10.912,3.833,13.613c4.816,2.7,10.911,0.984,13.612-3.833
			c3.286-5.863,9.36-9.505,15.851-9.505c6.491,0,12.566,3.642,15.852,9.505c1.833,3.27,5.231,5.112,8.731,5.112
			c1.655,0,3.334-0.412,4.881-1.278c4.817-2.701,6.534-8.795,3.833-13.613c-5.122-9.14-13.598-15.677-23.312-18.365l-0.025-13.848
			c16.174-2.191,29.191-9.614,35.162-19.632c71.872,9.418,126.653,34.361,163.063,74.218
			C427.476,453.281,347.962,492.001,256.001,492.001z M227.274,310.792c0-5.089,11.458-12.783,28.727-12.783
			s28.728,7.694,28.728,12.783c-0.001,5.089-11.459,12.782-28.728,12.782S227.274,315.881,227.274,310.792z M400.661,328.992
			c-27.996-12.233-60.644-20.826-97.14-25.582c-4.855-14.712-23.984-25.4-47.521-25.4c-22.92,0-41.668,10.135-47.116,24.251
			c-73.123,8.061-134.086,36.175-170.684,78.374c-7.901-16.564-12.191-34.311-12.191-52.759c0-41.816,22.193-81.699,62.492-112.302
			c2.144-1.628,3.541-4.052,3.875-6.723c0.036-0.292,0.083-0.581,0.121-0.872c0.004-0.025,0.007-0.051,0.011-0.076
			c1.993-14.956,6.761-29.12,13.858-42.145c0.635-0.809,1.126-1.699,1.478-2.632c13.938-24.204,35.983-44.297,63.092-57.989
			c0.544-0.176,1.082-0.391,1.604-0.667c0.365-0.193,0.708-0.411,1.038-0.641c7.207-3.488,14.752-6.533,22.587-9.085
			c1.273,4.489,2.766,9.347,4.502,14.495c-21.681,7.054-41.149,18.273-56.776,32.818c-4.043,3.763-4.271,10.09-0.508,14.133
			c1.97,2.116,4.643,3.187,7.322,3.187c2.439,0,4.885-0.887,6.811-2.68c13.695-12.747,30.9-22.575,50.15-28.712
			c11.49,27.948,29.744,60.532,58.324,87.981c24.247,23.287,52.926,39.92,85.239,49.436c21.761,6.409,45.31,9.617,70.429,9.617
			c16.08,0,32.808-1.319,50.109-3.952c9.344,18.005,14.227,37.195,14.227,56.809c0,17.912-4.056,35.159-11.523,51.308
			C454.322,358.48,429.567,341.622,400.661,328.992z"/>
	</g>
</g>
<g>
	<g>
		<path d="M226.053,211.277c-4.816-2.699-10.912-0.98-13.611,3.838c-4.242,7.573-12.095,12.278-20.493,12.278
			c-8.398,0-16.25-4.705-20.492-12.278c-2.698-4.819-8.793-6.537-13.611-3.838s-6.537,8.792-3.838,13.611
			c7.774,13.882,22.312,22.504,37.941,22.504c15.63,0,30.168-8.623,37.942-22.504C232.589,220.07,230.87,213.976,226.053,211.277z"
			/>
	</g>
</g>
<g>
	<g>
		<path d="M137.059,161.81c-4.952-2.451-10.949-0.422-13.398,4.527l-0.105,0.216c-2.409,4.97-0.334,10.951,4.636,13.361
			c1.405,0.682,2.892,1.004,4.355,1.004c3.711,0,7.277-2.075,9.005-5.639l0.035-0.071
			C144.035,170.257,142.007,164.259,137.059,161.81z"/>
	</g>
</g>
<g>
</g>
<g>
</g>
<g>
</g>
<g>
</g>
<g>
</g>
<g>
</g>
<g>
</g>
<g>
</g>
<g>
</g>
<g>
</g>
<g>
</g>
<g>
</g>
<g>
</g>
<g>
</g>
<g>
</g>
</svg>
